PathFileType	4	(X/Y/Z)	Patient4_TMGait_0pt5_01_right_14.trc.trc
DataRate	CameraRate	NumFrames	NumMarkers	Units	OrigDataRate	OrigDataStartFrame	OrigNumFrames
73.298429319372	73.298429319372	4	33	mm	73.298429319372	106	       141
Frame#	Time	L.ASIS			Sacral			L.Shoulder			Chest			R.Shoulder			Neck			R.ASIS			R.Thigh.Superior			R.Thigh.Lateral			R.Thigh.Inferior			R.Patella			L.Thigh.Superior			L.Thigh.Lateral			L.Thigh.Inferior			L.Patella			L.Shank.Superior			L.Shank.Lateral			L.Shank.Inferior			R.Shank.Superior			R.Shank.Lateral			R.Shank.Inferior			R.Heel			R.Midfoot.Superior			R.Midfoot.Lateral			R.Toe			L.Heel			L.Midfoot.Lateral			L.Midfoot.Superior			L.Toe			L.Elbow			L.Wrist			R.Elbow			R.Wrist			
		X1	Y1	Z1	X2	Y2	Z2	X3	Y3	Z3	X4	Y4	Z4	X5	Y5	Z5	X6	Y6	Z6	X7	Y7	Z7	X8	Y8	Z8	X9	Y9	Z9	X10	Y10	Z10	X11	Y11	Z11	X12	Y12	Z12	X13	Y13	Z13	X14	Y14	Z14	X15	Y15	Z15	X16	Y16	Z16	X17	Y17	Z17	X18	Y18	Z18	X19	Y19	Z19	X20	Y20	Z20	X21	Y21	Z21	X22	Y22	Z22	X23	Y23	Z23	X24	Y24	Z24	X25	Y25	Z25	X26	Y26	Z26	X27	Y27	Z27	X28	Y28	Z28	X29	Y29	Z29	X30	Y30	Z30	X31	Y31	Z31	X32	Y32	Z32	X33	Y33	Z33	

106	19.472500000000	807.389257354292	965.597929774714	290.999177421978	589.278278751713	1011.960489169449	444.627598975480	768.252992179948	1443.981390986969	273.631240213527	866.665684794455	1369.173703068666	435.386800248891	778.878464027185	1439.514495871389	609.865080023128	768.406551589427	1502.238739342966	425.311657223444	814.073306933414	950.612007118797	566.281264478718	896.645039138409	782.729409377388	538.609112081468	858.877875088746	661.045412863150	609.801879895315	948.421473001945	621.034369058284	530.930126164896	968.530465532350	508.122143678360	553.964293229918	841.148012091444	746.192984025914	326.337967975380	743.440173213239	636.731913026323	269.174536110605	816.830361345133	554.067160721944	336.966918807689	810.020460920019	485.237331894160	350.863378272539	783.591893193136	415.747565283478	343.158690610933	694.398762027964	302.786467306335	290.812982808090	735.405486314839	192.813142762553	368.710295041138	895.353239963246	431.213692438727	560.648899285466	776.932680804723	385.784518998735	621.596827163410	766.415489544322	276.880732198195	572.481635835907	567.887398174470	206.475225736120	545.606531695608	738.895399986734	156.845649131465	586.010669866514	629.322532958599	150.680588197256	619.897862327018	808.670775490206	47.473396792333	615.693545744140	599.210206690191	38.693445786475	407.558174362277	676.719376125917	35.465673150523	330.016466724531	759.866443285586	95.734532884354	359.602543840546	888.627824130300	40.941191582010	337.131164137077	773.468684525320	1110.460863550298	109.177817698840	995.953007150571	976.472028607060	96.343622426513	701.280806630322	1100.037243251899	721.070380286337	737.294976482170	840.693381466725	723.625196700208	
107	19.486142857143	807.482835277129	965.209508969282	291.131758349700	588.932248631577	1011.732724950136	444.138719124448	769.476690152678	1443.825258505827	273.552049006542	866.834104497910	1368.901776569808	435.889808192482	778.070921748121	1439.358999414414	609.910924737188	768.791912673980	1502.031982928465	425.247458061359	813.407260611250	950.763612616585	566.487553023100	897.237062561271	784.725166754946	537.831714098548	861.881840532207	662.698805824521	609.417801708192	950.820893632932	623.666623321281	529.525154309042	973.392729325826	512.158292462669	552.722002127000	839.363175138234	745.133049143485	326.695845218032	740.665620908586	636.481015043907	269.047269522018	812.858223354133	553.158147651313	337.146648877610	805.242524650544	484.492944139159	351.091768248269	778.647499781162	415.187380695897	343.288329410001	688.991316170616	302.679844164573	290.799267016173	729.110148706511	192.528290560307	368.831034308811	903.667339431241	433.081252301270	560.044047406584	788.100546790134	381.813953015082	621.496277182766	783.087291453520	272.434021493090	572.512554673451	588.512883336402	191.266359344532	546.199150682083	761.955467602559	151.524093348967	586.391841081449	653.164094511691	139.579334202974	620.794660036972	837.856430781229	46.684178113167	616.730538181868	592.359759363768	38.703894941319	407.540251825020	669.874114622318	35.460704316142	330.012844871711	753.030531055980	95.711073244838	359.637415424262	881.790037999838	40.879174281009	337.141967763033	780.190392193848	1111.163691259603	108.365988279140	1008.135171762158	987.102238713302	95.620018983517	689.803064478248	1101.897233916899	717.802411768939	713.853306435247	841.119013574662	717.507272155480	
108	19.499785714286	807.560362794773	964.756845793913	291.357711522558	588.653884861477	1011.442047741639	443.769639420024	770.742115045856	1443.603432062983	273.655849835999	867.059664335852	1368.541067827853	436.544502831483	777.376628735065	1439.122330646575	610.136098450238	769.229865853279	1501.738656484161	425.370995600483	812.752968386816	950.727854284623	566.754987473030	897.376497535372	786.087374803565	537.279007380140	863.927676145798	663.859643992810	609.263571621010	952.179408373354	625.525949848652	528.429663053325	976.991756382291	515.734571199035	551.763007797504	837.581834369974	744.030245915279	327.051223626217	737.879515947413	636.196009767448	268.945665840523	808.883175187868	552.232511599051	337.323912367219	800.510579463852	483.740463792600	351.284202637365	773.714778175198	414.586858084581	343.410618281155	683.570849320439	302.547356212644	290.806292979698	722.800457237168	192.218217986245	368.962837404788	911.152090060596	434.588656801498	559.670870924066	799.090175058703	377.086404621581	621.654532815672	800.132632406949	267.560112894511	572.699442080321	610.615721705943	175.025125534246	546.919134718073	786.005500754980	146.008757698756	586.843473212040	678.444962258445	127.816823814287	621.758052708632	868.203288657691	46.315745500643	617.659799196369	585.521076273169	38.710128133560	407.522477215797	663.025073776227	35.454904948228	330.014359401824	746.188604315135	95.679779944901	359.682285263417	874.951655325424	40.822106054016	337.152806529527	786.554256591838	1111.804412949004	107.914609790903	1019.406873030276	997.656812502067	95.375763755172	678.700985450916	1103.922075315801	714.407210460376	691.767469747307	842.361822319418	711.400783128074	
109	19.513428571429	807.634302028514	964.251203383578	291.677812658827	588.455581926528	1011.104094300852	443.505036200852	772.061866263120	1443.318782027963	273.935214199483	867.352027439392	1368.096892919664	437.345242832457	776.804651168489	1438.808545261484	610.531739004544	769.728488616645	1501.362850371153	425.673577467279	812.124345381761	950.513551487964	567.088600923170	897.056401992354	786.786021164450	536.978774848071	864.952693312468	664.488249420410	609.364491651656	952.486724215450	626.576382824563	527.713720053764	979.314936531874	518.805089444489	551.121701253453	835.792367383846	742.879111717572	327.433665697194	735.070648271838	635.885178120888	268.870441807259	804.870232920055	551.293217592565	337.514544606356	795.781789966830	482.984364977946	351.450979156026	768.756248122405	413.958708721971	343.528058218997	678.110476612424	302.392353675765	290.832640166965	716.469594151612	191.888850577941	369.105239828743	917.759302335698	435.763170317076	559.534619405862	809.891835089305	371.757855074981	622.065035628512	817.442111591500	262.510546042625	573.009438394442	634.159609723639	158.225847525595	547.705900312484	810.852638011369	140.641052906030	587.304232347014	705.043229617019	115.818136207026	622.705463344194	899.367777078363	46.718582057649	618.381619802845	578.690152787892	38.711584295022	407.504306408443	656.169210690636	35.447892886830	330.021080546111	739.337405718786	95.640445465860	359.737070479173	868.107762101436	40.772940858411	337.163629565283	792.562712324699	1112.372855287369	107.789004102977	1029.743615225754	1007.994034200072	95.609424628453	668.125355223412	1106.077721837205	710.971967479797	671.207721071340	844.241834659266	705.440374306013	
